<svg width="1682" height="164" viewBox="0 0 1682 164" fill="none" xmlns="http://www.w3.org/2000/svg">
<path d="M73.9129 -1.09673e-05C94.1529 -1.09673e-05 110.79 4.13999 123.823 12.42C136.856 20.5467 143.526 32.66 143.833 48.76V51.52H96.2229V50.6C96.2229 46 94.5362 42.1667 91.1629 39.1C87.7895 36.0333 82.6529 34.5 75.7529 34.5C69.0062 34.5 63.7929 35.4967 60.1129 37.49C56.5862 39.4833 54.8229 41.9367 54.8229 44.85C54.8229 48.99 57.2762 52.0567 62.1829 54.05C67.0895 56.0433 74.9862 58.1133 85.8729 60.26C98.5995 62.8667 109.026 65.6267 117.153 68.54C125.433 71.3 132.64 75.9 138.773 82.34C144.906 88.78 148.05 97.52 148.203 108.56C148.203 127.267 141.84 141.143 129.113 150.19C116.54 159.237 99.6729 163.76 78.5129 163.76C53.8262 163.76 34.5829 159.62 20.7829 151.34C7.13619 143.06 0.312852 128.417 0.312852 107.41H48.3829C48.3829 115.383 50.4529 120.75 54.5929 123.51C58.7329 126.117 65.1729 127.42 73.9129 127.42C80.3529 127.42 85.6429 126.73 89.7829 125.35C94.0762 123.97 96.2229 121.133 96.2229 116.84C96.2229 113.007 93.8462 110.17 89.0929 108.33C84.4929 106.337 76.9029 104.267 66.3229 102.12C53.4429 99.36 42.7862 96.5233 34.3529 93.61C25.9195 90.5433 18.5595 85.56 12.2729 78.66C5.98619 71.76 2.84285 62.4067 2.84285 50.6C2.84285 33.2733 9.51285 20.5467 22.8529 12.42C36.3462 4.13999 53.3662 -1.09673e-05 73.9129 -1.09673e-05ZM262.209 2.75999C272.023 2.75999 280.763 5.05999 288.429 9.65999C296.096 14.1067 302.076 20.3167 306.369 28.29C310.663 36.11 312.809 44.9267 312.809 54.74V57.73C312.809 67.5433 310.663 76.4367 306.369 84.41C302.076 92.3833 296.096 98.67 288.429 103.27C280.763 107.717 272.023 109.94 262.209 109.94H224.259V161H173.429V2.75999H262.209ZM224.259 72.91H245.189C250.556 72.91 254.543 71.53 257.149 68.77C259.909 66.01 261.289 62.2533 261.289 57.5V55.66C261.289 50.7533 259.909 46.9967 257.149 44.39C254.543 41.63 250.556 40.25 245.189 40.25H224.259V72.91ZM339.416 2.75999H476.266V40.71H390.246V62.56H463.846V98.9H390.246V123.05H477.876V161H339.416V2.75999ZM505.402 2.75999H556.232V120.52H637.422V161H505.402V2.75999ZM658.81 2.75999H709.64V120.52H790.83V161H658.81V2.75999ZM917.558 2.75999C925.532 2.75999 932.815 4.44666 939.408 7.82C946.155 11.04 951.445 15.64 955.278 21.62C959.265 27.6 961.258 34.27 961.258 41.63C961.258 61.1033 952.442 73.37 934.808 78.43V79.35C954.895 83.95 964.938 97.1367 964.938 118.91C964.938 127.19 962.868 134.55 958.728 140.99C954.742 147.277 949.222 152.183 942.168 155.71C935.115 159.237 927.372 161 918.938 161H812.218V2.75999H917.558ZM863.048 64.4H898.008C901.382 64.4 904.142 63.25 906.288 60.95C908.588 58.4967 909.738 55.5067 909.738 51.98V49.68C909.738 46.3067 908.588 43.47 906.288 41.17C903.988 38.7167 901.228 37.49 898.008 37.49H863.048V64.4ZM863.048 124.2H901.688C905.062 124.2 907.822 123.05 909.968 120.75C912.268 118.297 913.418 115.307 913.418 111.78V109.48C913.418 105.953 912.268 103.04 909.968 100.74C907.822 98.2867 905.062 97.06 901.688 97.06H863.048V124.2ZM1141.42 51.29C1141.42 60.95 1138.82 69.69 1133.6 77.51C1128.39 85.33 1120.8 91.08 1110.83 94.76L1146.02 161H1088.98L1060.92 103.27H1042.06V161H991.232V2.75999H1088.06C1099.41 2.75999 1109.07 4.98333 1117.04 9.42999C1125.17 13.7233 1131.23 19.6267 1135.21 27.14C1139.35 34.5 1141.42 42.55 1141.42 51.29ZM1089.67 53.36C1089.67 49.22 1088.29 45.77 1085.53 43.01C1082.77 40.25 1079.4 38.87 1075.41 38.87H1042.06V68.08H1075.41C1079.4 68.08 1082.77 66.7 1085.53 63.94C1088.29 61.0267 1089.67 57.5 1089.67 53.36ZM1323.98 97.29C1323.98 118.91 1317.15 135.393 1303.51 146.74C1289.86 158.087 1270.46 163.76 1245.32 163.76C1220.17 163.76 1200.7 158.087 1186.9 146.74C1173.25 135.393 1166.43 118.91 1166.43 97.29V2.75999H1217.26V96.6C1217.26 105.493 1219.63 112.623 1224.39 117.99C1229.14 123.203 1236.04 125.81 1245.09 125.81C1254.13 125.81 1261.03 123.127 1265.79 117.76C1270.69 112.393 1273.15 105.34 1273.15 96.6V2.75999H1323.98V97.29ZM1424.49 -1.09673e-05C1444.73 -1.09673e-05 1461.37 4.13999 1474.4 12.42C1487.43 20.5467 1494.1 32.66 1494.41 48.76V51.52H1446.8V50.6C1446.8 46 1445.11 42.1667 1441.74 39.1C1438.37 36.0333 1433.23 34.5 1426.33 34.5C1419.58 34.5 1414.37 35.4967 1410.69 37.49C1407.16 39.4833 1405.4 41.9367 1405.4 44.85C1405.4 48.99 1407.85 52.0567 1412.76 54.05C1417.67 56.0433 1425.56 58.1133 1436.45 60.26C1449.18 62.8667 1459.6 65.6267 1467.73 68.54C1476.01 71.3 1483.22 75.9 1489.35 82.34C1495.48 88.78 1498.63 97.52 1498.78 108.56C1498.78 127.267 1492.42 141.143 1479.69 150.19C1467.12 159.237 1450.25 163.76 1429.09 163.76C1404.4 163.76 1385.16 159.62 1371.36 151.34C1357.71 143.06 1350.89 128.417 1350.89 107.41H1398.96C1398.96 115.383 1401.03 120.75 1405.17 123.51C1409.31 126.117 1415.75 127.42 1424.49 127.42C1430.93 127.42 1436.22 126.73 1440.36 125.35C1444.65 123.97 1446.8 121.133 1446.8 116.84C1446.8 113.007 1444.42 110.17 1439.67 108.33C1435.07 106.337 1427.48 104.267 1416.9 102.12C1404.02 99.36 1393.36 96.5233 1384.93 93.61C1376.5 90.5433 1369.14 85.56 1362.85 78.66C1356.56 71.76 1353.42 62.4067 1353.42 50.6C1353.42 33.2733 1360.09 20.5467 1373.43 12.42C1386.92 4.13999 1403.94 -1.09673e-05 1424.49 -1.09673e-05ZM1630.73 161V100.97H1574.84V161H1524.01V2.75999H1574.84V60.49H1630.73V2.75999H1681.56V161H1630.73Z" fill="#403C53"/>
</svg>
